<svg width="24" height="24" viewBox="0 0 24 24" fill="none" xmlns="http://www.w3.org/2000/svg">
<path d="M11 15C14 15 19 19 19 19V3C19 3 14 7 11 7M11 15V7M11 15H6C3.791 15 2 14.111 2 11C2 7.889 3.791 7 6 7H11M5 15L8 23H12L9 15M19 14C19.394 14 19.7841 13.9224 20.1481 13.7716C20.512 13.6209 20.8427 13.3999 21.1213 13.1213C21.3999 12.8427 21.6209 12.512 21.7716 12.1481C21.9224 11.7841 22 11.394 22 11C22 10.606 21.9224 10.2159 21.7716 9.85195C21.6209 9.48797 21.3999 9.15726 21.1213 8.87868C20.8427 8.6001 20.512 8.37913 20.1481 8.22836C19.7841 8.0776 19.394 8 19 8M11 19C12 19 14 18 14 16" stroke="#707683" stroke-width="1.5"/>
</svg>
