<svg width="24" height="24" viewBox="0 0 24 24" fill="none" xmlns="http://www.w3.org/2000/svg">
<path d="M16.7201 19.752L16.0801 14.628C15.9894 13.9022 15.6366 13.2346 15.0882 12.7506C14.5398 12.2667 13.8335 11.9997 13.1021 12H10.8981C10.167 12.0002 9.46114 12.2674 8.91314 12.7513C8.36515 13.2352 8.01271 13.9026 7.92206 14.628L7.28106 19.752C7.24588 20.0335 7.271 20.3193 7.35474 20.5903C7.43848 20.8614 7.57893 21.1116 7.76677 21.3242C7.9546 21.5368 8.18552 21.707 8.44419 21.8235C8.70286 21.94 8.98336 22.0002 9.26706 22H14.7351C15.0187 22.0001 15.2991 21.9398 15.5576 21.8232C15.8162 21.7066 16.047 21.5364 16.2347 21.3238C16.4224 21.1112 16.5628 20.8611 16.6465 20.5901C16.7301 20.3191 16.7552 20.0334 16.7201 19.752Z" stroke="#707683" stroke-width="2" stroke-linecap="round" stroke-linejoin="round"/>
<path d="M12 8C13.6569 8 15 6.65685 15 5C15 3.34315 13.6569 2 12 2C10.3431 2 9 3.34315 9 5C9 6.65685 10.3431 8 12 8Z" stroke="#707683" stroke-width="2"/>
<path d="M4 11C5.10457 11 6 10.1046 6 9C6 7.89543 5.10457 7 4 7C2.89543 7 2 7.89543 2 9C2 10.1046 2.89543 11 4 11Z" stroke="#707683" stroke-width="2"/>
<path d="M20 11C21.1046 11 22 10.1046 22 9C22 7.89543 21.1046 7 20 7C18.8954 7 18 7.89543 18 9C18 10.1046 18.8954 11 20 11Z" stroke="#707683" stroke-width="2"/>
<path d="M3.99862 14H3.69262C3.21918 13.9999 2.76107 14.1678 2.3998 14.4738C2.03852 14.7798 1.7975 15.204 1.71962 15.671L1.38662 17.671C1.33883 17.9575 1.35404 18.2511 1.43119 18.5311C1.50834 18.8112 1.64557 19.0711 1.83335 19.2928C2.02112 19.5144 2.25493 19.6925 2.51851 19.8146C2.78209 19.9368 3.06912 20 3.35962 20H6.99862M19.9986 14H20.3046C20.7781 13.9999 21.2362 14.1678 21.5974 14.4738C21.9587 14.7798 22.1997 15.204 22.2776 15.671L22.6106 17.671C22.6584 17.9575 22.6432 18.2511 22.5661 18.5311C22.4889 18.8112 22.3517 19.0711 22.1639 19.2928C21.9761 19.5144 21.7423 19.6925 21.4787 19.8146C21.2151 19.9368 20.9281 20 20.6376 20H16.9986" stroke="#707683" stroke-width="2" stroke-linecap="round" stroke-linejoin="round"/>
</svg>
