<svg width="25" height="25" viewBox="0 0 25 25" fill="none" xmlns="http://www.w3.org/2000/svg">
<path d="M20 18H22V20H2V18H4V11C4 8.87827 4.84285 6.84344 6.34315 5.34315C7.84344 3.84285 9.87827 3 12 3C14.1217 3 16.1566 3.84285 17.6569 5.34315C19.1571 6.84344 20 8.87827 20 11V18ZM18 18V11C18 9.4087 17.3679 7.88258 16.2426 6.75736C15.1174 5.63214 13.5913 5 12 5C10.4087 5 8.88258 5.63214 7.75736 6.75736C6.63214 7.88258 6 9.4087 6 11V18H18ZM9 22H15V24H9V22Z" fill="#707683"/>
<circle cx="20" cy="5" r="4.5" fill="#EA867D" stroke="white"/>
</svg>
