<svg width="24" height="24" viewBox="0 0 24 24" fill="none" xmlns="http://www.w3.org/2000/svg">
<path d="M2 11.9974C2 11.1324 2.11 10.2944 2.316 9.49338C2.86847 9.52242 3.4182 9.39813 3.90444 9.13424C4.39068 8.87036 4.79448 8.47716 5.07121 7.99812C5.34793 7.51907 5.48681 6.97284 5.47248 6.4198C5.45814 5.86675 5.29117 5.32844 4.99 4.86438C6.19894 3.67494 7.69079 2.81287 9.325 2.35938C9.57599 2.85285 9.95864 3.26724 10.4306 3.55669C10.9025 3.84613 11.4454 3.99933 11.999 3.99933C12.5526 3.99933 13.0955 3.84613 13.5674 3.55669C14.0394 3.26724 14.422 2.85285 14.673 2.35938C16.3072 2.81287 17.7991 3.67494 19.008 4.86438C18.7065 5.32853 18.5393 5.86704 18.5248 6.42034C18.5104 6.97364 18.6493 7.52014 18.9262 7.99939C19.2031 8.47863 19.6071 8.87194 20.0937 9.13579C20.5802 9.39964 21.1303 9.52374 21.683 9.49437C21.889 10.2944 21.999 11.1324 21.999 11.9974C21.999 12.8624 21.889 13.7004 21.683 14.5014C21.1305 14.4721 20.5806 14.5963 20.0942 14.8601C19.6078 15.1239 19.2039 15.5171 18.927 15.9962C18.6502 16.4752 18.5112 17.0216 18.5255 17.5747C18.5398 18.1278 18.7068 18.6662 19.008 19.1304C17.7991 20.3198 16.3072 21.1819 14.673 21.6354C14.422 21.1419 14.0394 20.7275 13.5674 20.4381C13.0955 20.1486 12.5526 19.9954 11.999 19.9954C11.4454 19.9954 10.9025 20.1486 10.4306 20.4381C9.95864 20.7275 9.57599 21.1419 9.325 21.6354C7.69079 21.1819 6.19894 20.3198 4.99 19.1304C5.29151 18.6662 5.45873 18.1277 5.47317 17.5744C5.48761 17.0211 5.3487 16.4746 5.07181 15.9954C4.79492 15.5161 4.39085 15.1228 3.90431 14.859C3.41776 14.5951 2.8677 14.471 2.315 14.5004C2.11 13.7014 2 12.8634 2 11.9974ZM6.804 14.9974C7.434 16.0884 7.614 17.3434 7.368 18.5214C7.776 18.8114 8.21 19.0624 8.665 19.2714C9.58167 18.4502 10.7693 17.9965 12 17.9974C13.26 17.9974 14.438 18.4684 15.335 19.2714C15.79 19.0624 16.224 18.8114 16.632 18.5214C16.3794 17.3173 16.5803 16.0624 17.196 14.9974C17.8106 13.9317 18.797 13.1305 19.966 12.7474C20.0122 12.2484 20.0122 11.7463 19.966 11.2474C18.7966 10.8644 17.8099 10.0632 17.195 8.99738C16.5793 7.9323 16.3784 6.67741 16.631 5.47337C16.2231 5.1833 15.7889 4.93219 15.334 4.72337C14.4176 5.54431 13.2303 5.99798 12 5.99738C10.7693 5.99823 9.58167 5.54454 8.665 4.72337C8.21013 4.9322 7.77589 5.1833 7.368 5.47337C7.62056 6.67741 7.41972 7.9323 6.804 8.99738C6.18937 10.063 5.20298 10.8642 4.034 11.2474C3.98775 11.7463 3.98775 12.2484 4.034 12.7474C5.20336 13.1303 6.19013 13.9316 6.805 14.9974H6.804ZM12 14.9974C11.2044 14.9974 10.4413 14.6813 9.87868 14.1187C9.31607 13.5561 9 12.793 9 11.9974C9 11.2017 9.31607 10.4387 9.87868 9.87605C10.4413 9.31345 11.2044 8.99738 12 8.99738C12.7957 8.99738 13.5587 9.31345 14.1213 9.87605C14.6839 10.4387 15 11.2017 15 11.9974C15 12.793 14.6839 13.5561 14.1213 14.1187C13.5587 14.6813 12.7957 14.9974 12 14.9974ZM12 12.9974C12.2652 12.9974 12.5196 12.892 12.7071 12.7045C12.8946 12.5169 13 12.2626 13 11.9974C13 11.7322 12.8946 11.4778 12.7071 11.2903C12.5196 11.1027 12.2652 10.9974 12 10.9974C11.7348 10.9974 11.4804 11.1027 11.2929 11.2903C11.1054 11.4778 11 11.7322 11 11.9974C11 12.2626 11.1054 12.5169 11.2929 12.7045C11.4804 12.892 11.7348 12.9974 12 12.9974Z" fill="#707683"/>
</svg>
