<svg width="24" height="24" viewBox="0 0 24 24" fill="none" xmlns="http://www.w3.org/2000/svg">
<path d="M7.545 13.41C7.77591 13.4662 8.01238 13.4964 8.25 13.5C8.84577 13.4998 9.42801 13.3223 9.9225 12.99L12.3375 15.1425C12.1462 15.5058 12.0339 15.9054 12.0081 16.3152C11.9822 16.725 12.0434 17.1356 12.1875 17.52C12.3389 17.9556 12.5887 18.3504 12.9174 18.6738C13.2462 18.9972 13.6451 19.2405 14.0831 19.3847C14.5211 19.5289 14.9865 19.5702 15.4431 19.5053C15.8997 19.4405 16.3351 19.2712 16.7157 19.0107C17.0962 18.7503 17.4116 18.4056 17.6373 18.0034C17.863 17.6013 17.993 17.1525 18.0171 16.692C18.0412 16.2315 17.9589 15.7716 17.7764 15.3481C17.5939 14.9245 17.3163 14.5488 16.965 14.25L18.87 10.4325C19.2418 10.5164 19.6267 10.5244 20.0017 10.4561C20.3767 10.3878 20.7341 10.2446 21.0525 10.035C21.5932 9.70503 22.0155 9.21239 22.2591 8.62767C22.5026 8.04294 22.5548 7.39613 22.4082 6.77991C22.2616 6.1637 21.9238 5.60969 21.443 5.19727C20.9623 4.78484 20.3633 4.53517 19.732 4.48401C19.1006 4.43286 18.4693 4.58285 17.9284 4.9125C17.3875 5.24215 16.9649 5.73453 16.721 6.31911C16.4771 6.90369 16.4245 7.55047 16.5707 8.16677C16.7169 8.78308 17.0545 9.33729 17.535 9.75L15.63 13.5675C15.4231 13.522 15.2118 13.4994 15 13.5C14.4042 13.5002 13.822 13.6777 13.3275 14.01L10.9125 11.8575C11.1038 11.4942 11.2161 11.0946 11.2419 10.6848C11.2678 10.275 11.2066 9.86445 11.0625 9.48C10.9122 9.04757 10.665 8.65527 10.3397 8.33314C10.0144 8.01101 9.6197 7.7676 9.18582 7.62154C8.75194 7.47549 8.2904 7.43068 7.83653 7.49053C7.38266 7.55038 6.9485 7.71331 6.56732 7.96684C6.18613 8.22038 5.86803 8.55778 5.63737 8.95323C5.4067 9.34867 5.2696 9.79166 5.23656 10.2483C5.20352 10.7049 5.27542 11.163 5.44675 11.5875C5.61807 12.012 5.88429 12.3917 6.225 12.6975L3 18.75V1.5H1.5V21C1.5 21.3978 1.65804 21.7794 1.93934 22.0607C2.22064 22.342 2.60218 22.5 3 22.5H22.5V21H3.5025L7.545 13.41ZM19.5 6C19.7967 6 20.0867 6.08797 20.3334 6.2528C20.58 6.41762 20.7723 6.65189 20.8858 6.92597C20.9994 7.20006 21.0291 7.50166 20.9712 7.79264C20.9133 8.08361 20.7704 8.35088 20.5607 8.56066C20.3509 8.77044 20.0836 8.9133 19.7926 8.97118C19.5017 9.02906 19.2001 8.99935 18.926 8.88582C18.6519 8.77229 18.4176 8.58003 18.2528 8.33335C18.088 8.08668 18 7.79667 18 7.5C18 7.10218 18.158 6.72064 18.4393 6.43934C18.7206 6.15804 19.1022 6 19.5 6ZM16.5 16.5C16.5 16.7967 16.412 17.0867 16.2472 17.3334C16.0824 17.58 15.8481 17.7723 15.574 17.8858C15.2999 17.9994 14.9983 18.0291 14.7074 17.9712C14.4164 17.9133 14.1491 17.7704 13.9393 17.5607C13.7296 17.3509 13.5867 17.0836 13.5288 16.7926C13.4709 16.5017 13.5006 16.2001 13.6142 15.926C13.7277 15.6519 13.92 15.4176 14.1666 15.2528C14.4133 15.088 14.7033 15 15 15C15.3978 15 15.7794 15.158 16.0607 15.4393C16.342 15.7206 16.5 16.1022 16.5 16.5ZM8.25 9C8.54667 9 8.83668 9.08797 9.08335 9.2528C9.33003 9.41762 9.52229 9.65189 9.63582 9.92597C9.74935 10.2001 9.77906 10.5017 9.72118 10.7926C9.6633 11.0836 9.52044 11.3509 9.31066 11.5607C9.10088 11.7704 8.83361 11.9133 8.54264 11.9712C8.25166 12.0291 7.95006 11.9994 7.67597 11.8858C7.40189 11.7723 7.16762 11.58 7.0028 11.3334C6.83797 11.0867 6.75 10.7967 6.75 10.5C6.75 10.1022 6.90804 9.72064 7.18934 9.43934C7.47064 9.15804 7.85218 9 8.25 9Z" fill="#707683"/>
</svg>
